<?xml version="1.0" encoding="UTF-8" standalone="no"?> <svg id="Capa_1" enable-background="new 0 0 512 512" height="512" viewBox="0 0 512 512" width="512" xmlns="http://www.w3.org/2000/svg"><g><path d="m186.008 92h60c8.284 0 15-6.716 15-15s-6.716-15-15-15h-60c-8.284 0-15 6.716-15 15s6.716 15 15 15z"/><circle cx="116.008" cy="77" r="15"/><path d="m116.008 172h160c8.284 0 15-6.716 15-15s-6.716-15-15-15h-160c-8.284 0-15 6.716-15 15s6.716 15 15 15z"/><path d="m116.008 232h90c8.284 0 15-6.716 15-15s-6.716-15-15-15h-90c-8.284 0-15 6.716-15 15s6.716 15 15 15z"/><path d="m116.008 292h60c8.284 0 15-6.716 15-15s-6.716-15-15-15h-60c-8.284 0-15 6.716-15 15s6.716 15 15 15z"/><path d="m460.757 106.394-14.143-14.144c-13.646-13.646-35.852-13.644-49.495 0-.001 0-.001.001-.001.001l-6.109 6.109v-43.36c0-30.327-24.673-55-55-55h-240c-30.327 0-55 24.673-55 55v402c0 30.327 24.673 55 55 55h240c30.327 0 55-24.673 55-55v-231.36l69.75-69.75c13.644-13.646 13.644-35.85-.002-49.496zm-124.749 375.606h-240c-13.785 0-25-11.215-25-25v-25h290v25c0 13.785-11.214 25-25 25zm25-80h-290v-347c0-13.785 11.215-25 25-25h240c13.785 0 25 11.215 25 25v73.36l-134.393 134.393c-1.647 1.646-2.887 3.654-3.624 5.863l-17.794 53.384h-89.188c-8.284 0-15 6.716-15 15s6.716 15 15 15h100 .002c1.586 0 3.188-.252 4.741-.77l63.64-21.213c2.209-.736 4.217-1.978 5.863-3.624l70.754-70.754v146.361zm4.407-193.193c-.009.008-.017.017-.026.026l-93.844 93.844-31.82 10.606 10.607-31.821 129.108-129.108 21.214 21.214zm74.129-74.129-17.678 17.678-21.214-21.214 17.677-17.677c1.95-1.948 5.122-1.951 7.072-.001l14.142 14.142c1.951 1.95 1.951 5.123.001 7.072z"/></g></svg>